<svg width="178" height="50" fill="none" xmlns="http://www.w3.org/2000/svg">
  <path d="M39.17 24.72c-.038-4.19 3.52-6.229 3.682-6.324-2.015-2.864-5.137-3.255-6.235-3.286-2.622-.27-5.166 1.53-6.502 1.53-1.363 0-3.42-1.504-5.638-1.46-2.853.043-5.523 1.654-6.986 4.155-3.022 5.1-.768 12.594 2.126 16.716 1.448 2.02 3.14 4.273 5.355 4.194 2.166-.087 2.976-1.347 5.59-1.347 2.591 0 3.351 1.347 5.61 1.296 2.325-.036 3.79-2.028 5.187-4.065 1.673-2.314 2.345-4.592 2.371-4.71-.054-.018-4.515-1.678-4.56-6.7ZM34.904 12.398c1.165-1.421 1.962-3.354 1.741-5.316-1.687.073-3.796 1.138-5.01 2.527-1.075 1.225-2.035 3.232-1.787 5.12 1.895.138 3.84-.932 5.056-2.331ZM70.527 39.955h-3.028l-1.659-5.082h-5.765l-1.58 5.082h-2.948l5.712-17.3h3.528l5.74 17.3Zm-5.187-7.214-1.5-4.517c-.159-.462-.456-1.548-.895-3.26h-.053a123.23 123.23 0 0 1-.843 3.26l-1.473 4.517h4.764ZM85.216 33.564c0 2.122-.588 3.799-1.764 5.03-1.053 1.096-2.361 1.643-3.923 1.643-1.685 0-2.896-.59-3.633-1.77h-.053v6.571H73V31.587c0-1.334-.036-2.703-.106-4.107h2.5l.16 1.978h.052c.949-1.49 2.387-2.234 4.318-2.234 1.51 0 2.77.581 3.777 1.745 1.01 1.165 1.515 2.696 1.515 4.595Zm-2.896.102c0-1.214-.28-2.215-.843-3.003-.615-.822-1.44-1.233-2.475-1.233-.7 0-1.338.23-1.907.68a3.142 3.142 0 0 0-1.12 1.785 3.544 3.544 0 0 0-.131.845v2.08c0 .907.285 1.673.856 2.298.57.626 1.312.938 2.224.938 1.07 0 1.904-.403 2.5-1.207.597-.804.896-1.865.896-3.183ZM99.932 33.564c0 2.122-.588 3.799-1.765 5.03-1.052 1.096-2.36 1.643-3.921 1.643-1.686 0-2.896-.59-3.632-1.77h-.054v6.571h-2.842V31.587c0-1.334-.036-2.703-.106-4.107h2.5l.159 1.978h.053c.947-1.49 2.386-2.234 4.318-2.234 1.508 0 2.768.581 3.778 1.745 1.007 1.165 1.512 2.696 1.512 4.595Zm-2.896.102c0-1.214-.281-2.215-.844-3.003-.614-.822-1.437-1.233-2.473-1.233-.703 0-1.339.23-1.91.68a3.14 3.14 0 0 0-1.117 1.785c-.086.343-.132.624-.132.845v2.08c0 .907.286 1.673.854 2.298.57.624 1.312.938 2.226.938 1.071 0 1.904-.403 2.5-1.207.598-.804.896-1.865.896-3.183ZM116.386 35.103c0 1.472-.524 2.67-1.576 3.594-1.156 1.01-2.765 1.514-4.833 1.514-1.91 0-3.44-.359-4.599-1.078l.659-2.31c1.248.736 2.617 1.105 4.109 1.105 1.071 0 1.904-.236 2.503-.707.596-.47.893-1.102.893-1.89 0-.702-.245-1.294-.737-1.773-.49-.48-1.307-.926-2.448-1.338-3.107-1.13-4.659-2.784-4.659-4.96 0-1.423.544-2.589 1.633-3.496 1.086-.91 2.534-1.363 4.344-1.363 1.615 0 2.956.274 4.027.822l-.711 2.26c-1-.531-2.13-.796-3.396-.796-1 0-1.781.24-2.341.718-.473.428-.711.95-.711 1.567 0 .684.271 1.25.815 1.694.473.41 1.333.855 2.581 1.335 1.527.6 2.648 1.3 3.37 2.103.718.801 1.077 1.803 1.077 3ZM125.784 29.56h-3.133v6.057c0 1.54.552 2.31 1.659 2.31.508 0 .929-.043 1.262-.129l.079 2.105c-.56.204-1.297.307-2.211.307-1.122 0-2-.334-2.633-1.001-.631-.668-.948-1.789-.948-3.363v-6.288h-1.867v-2.08h1.867v-2.284l2.792-.822v3.106h3.133v2.082ZM139.922 33.615c0 1.918-.563 3.492-1.686 4.723-1.177 1.267-2.74 1.9-4.688 1.9-1.877 0-3.372-.608-4.486-1.822-1.115-1.214-1.672-2.747-1.672-4.594 0-1.933.573-3.517 1.724-4.748 1.148-1.232 2.697-1.848 4.645-1.848 1.877 0 3.388.607 4.528 1.822 1.091 1.18 1.635 2.702 1.635 4.567Zm-2.95.09c0-1.15-.252-2.137-.762-2.96-.596-.996-1.448-1.493-2.552-1.493-1.143 0-2.011.498-2.607 1.493-.511.824-.763 1.826-.763 3.012 0 1.15.252 2.137.763 2.959.615.995 1.473 1.492 2.581 1.492 1.086 0 1.938-.507 2.552-1.518.524-.839.788-1.836.788-2.985ZM149.162 29.918a5.07 5.07 0 0 0-.896-.077c-1 0-1.774.368-2.318 1.105-.473.65-.71 1.472-.71 2.464v6.545h-2.842l.027-8.546c0-1.438-.036-2.747-.107-3.927h2.476l.104 2.386h.079c.3-.82.773-1.48 1.421-1.976.634-.445 1.318-.668 2.055-.668.263 0 .5.018.711.05v2.644ZM161.875 33.127c0 .497-.034.916-.104 1.258h-8.528c.033 1.232.445 2.175 1.237 2.825.719.58 1.648.872 2.789.872 1.263 0 2.415-.197 3.451-.59l.445 1.924c-1.21.514-2.64.77-4.289.77-1.984 0-3.541-.569-4.675-1.706-1.13-1.138-1.697-2.665-1.697-4.582 0-1.88.527-3.447 1.581-4.697 1.104-1.333 2.596-2 4.474-2 1.844 0 3.24.667 4.188 2 .75 1.06 1.128 2.37 1.128 3.926Zm-2.711-.718c.019-.822-.167-1.532-.552-2.131-.492-.771-1.248-1.156-2.265-1.156-.93 0-1.686.376-2.263 1.13-.473.6-.755 1.318-.841 2.155h5.921v.002ZM64.4 12.012c0 1.53-.47 2.682-1.411 3.455-.87.714-2.108 1.071-3.71 1.071a17.64 17.64 0 0 1-2.045-.101v-8.36a15.46 15.46 0 0 1 2.407-.177c1.527 0 2.677.323 3.453.97.87.733 1.306 1.78 1.306 3.142Zm-1.474.037c0-.992-.269-1.752-.808-2.282-.538-.53-1.325-.795-2.361-.795-.44 0-.815.029-1.125.089v6.355c.172.026.486.038.944.038 1.069 0 1.894-.29 2.476-.87.581-.58.874-1.424.874-2.535ZM72.212 13.348c0 .943-.276 1.715-.828 2.32-.579.623-1.346.934-2.303.934-.923 0-1.657-.298-2.205-.896-.547-.596-.82-1.349-.82-2.256 0-.95.281-1.728.846-2.333.566-.604 1.326-.907 2.283-.907.923 0 1.664.298 2.225.894.534.58.802 1.329.802 2.244Zm-1.45.044c0-.565-.125-1.05-.374-1.454-.294-.49-.711-.734-1.254-.734-.561 0-.988.245-1.281.734-.25.404-.375.897-.375 1.48 0 .565.126 1.05.375 1.454.303.489.724.733 1.268.733.533 0 .952-.248 1.253-.746.259-.412.388-.901.388-1.467ZM82.687 10.335l-1.967 6.128h-1.28l-.815-2.661a19.48 19.48 0 0 1-.505-1.98h-.025c-.122.673-.29 1.332-.506 1.98l-.865 2.66H75.43l-1.849-6.127h1.436l.71 2.913c.173.689.314 1.346.427 1.967h.026c.104-.512.276-1.165.518-1.954l.892-2.925h1.14l.854 2.863c.206.698.374 1.37.504 2.017h.038c.095-.63.238-1.302.427-2.017l.763-2.863h1.372v-.001ZM89.93 16.463h-1.397v-3.51c0-1.082-.421-1.622-1.267-1.622-.414 0-.75.148-1.01.446a1.559 1.559 0 0 0-.387 1.05v3.635h-1.397v-4.376c0-.538-.018-1.122-.051-1.754h1.228l.065.958h.039a1.99 1.99 0 0 1 .724-.74 2.407 2.407 0 0 1 1.267-.344c.586 0 1.074.185 1.462.555.483.454.724 1.131.724 2.03v3.672ZM93.784 16.463h-1.396v-8.94h1.396v8.94ZM102.01 13.348c0 .943-.276 1.715-.828 2.32-.578.623-1.346.934-2.302.934-.924 0-1.659-.298-2.206-.896-.546-.596-.82-1.349-.82-2.256 0-.95.282-1.728.847-2.333.566-.604 1.326-.907 2.282-.907.923 0 1.663.298 2.226.894.533.58.801 1.329.801 2.244Zm-1.45.044c0-.565-.126-1.05-.375-1.454-.292-.49-.71-.734-1.252-.734-.563 0-.99.245-1.281.734-.25.404-.375.897-.375 1.48 0 .565.126 1.05.375 1.454.302.489.724.733 1.268.733.533 0 .95-.248 1.252-.746.26-.412.388-.901.388-1.467ZM108.773 16.463h-1.254l-.104-.706h-.039c-.429.563-1.041.845-1.836.845-.593 0-1.073-.186-1.435-.555-.328-.335-.492-.753-.492-1.248 0-.749.32-1.32.964-1.715.643-.395 1.547-.589 2.711-.58v-.114c0-.807-.435-1.21-1.305-1.21-.62 0-1.167.152-1.639.454l-.284-.895c.584-.352 1.305-.529 2.156-.529 1.643 0 2.467.845 2.467 2.535v2.257c0 .612.03 1.1.09 1.461Zm-1.45-2.106v-.945c-1.542-.026-2.312.386-2.312 1.235 0 .32.088.559.268.719.18.16.409.239.682.239.307 0 .594-.095.855-.283a1.157 1.157 0 0 0 .507-.965ZM116.713 16.463h-1.24l-.065-.984h-.039c-.396.749-1.071 1.123-2.019 1.123-.757 0-1.388-.29-1.888-.87-.5-.58-.749-1.332-.749-2.256 0-.992.271-1.796.815-2.41.526-.571 1.172-.857 1.94-.857.844 0 1.434.277 1.77.832h.027V7.523h1.399v7.289c0 .597.016 1.147.049 1.65Zm-1.448-2.585v-1.021c0-.177-.013-.32-.039-.43a1.542 1.542 0 0 0-.505-.825 1.394 1.394 0 0 0-.935-.334c-.521 0-.929.202-1.229.606-.297.404-.448.92-.448 1.55 0 .607.143 1.098.429 1.476.303.403.711.605 1.222.605.458 0 .825-.168 1.104-.505.269-.31.401-.685.401-1.121ZM128.664 13.348c0 .943-.276 1.715-.828 2.32-.579.623-1.344.934-2.303.934-.921 0-1.656-.298-2.205-.896-.547-.596-.82-1.349-.82-2.256 0-.95.281-1.728.846-2.333.566-.604 1.326-.907 2.284-.907.922 0 1.664.298 2.224.894.534.58.802 1.329.802 2.244Zm-1.448.044c0-.565-.126-1.05-.375-1.454-.295-.49-.711-.734-1.255-.734-.56 0-.986.245-1.281.734-.251.404-.375.897-.375 1.48 0 .565.126 1.05.375 1.454.303.489.724.733 1.268.733.533 0 .953-.248 1.255-.746.257-.412.388-.901.388-1.467ZM136.177 16.463h-1.396v-3.51c0-1.082-.421-1.622-1.268-1.622-.415 0-.749.148-1.008.446a1.55 1.55 0 0 0-.388 1.05v3.635h-1.399v-4.376c0-.538-.016-1.122-.049-1.754h1.227l.065.958H132c.164-.297.406-.543.724-.74a2.41 2.41 0 0 1 1.268-.344c.585 0 1.073.185 1.461.555.484.454.724 1.131.724 2.03v3.672ZM145.581 11.355h-1.539v2.977c0 .757.274 1.135.815 1.135.251 0 .459-.02.623-.064l.036 1.034c-.276.101-.639.152-1.086.152-.552 0-.981-.164-1.292-.491-.312-.328-.466-.88-.466-1.653v-3.09h-.919v-1.02h.919V9.212l1.369-.403v1.525h1.539v1.021h.001ZM152.978 16.463h-1.398v-3.484c0-1.099-.422-1.648-1.266-1.648-.648 0-1.09.318-1.333.955a1.684 1.684 0 0 0-.065.49v3.686h-1.396v-8.94h1.396v3.694h.026c.44-.672 1.071-1.007 1.888-1.007.579 0 1.058.184 1.438.555.473.461.71 1.148.71 2.055v3.644ZM160.609 13.109c0 .244-.018.45-.052.617h-4.19c.018.606.218 1.068.606 1.387.355.287.812.43 1.372.43.62 0 1.186-.097 1.695-.29l.219.946c-.596.252-1.298.378-2.11.378-.973 0-1.74-.28-2.294-.838-.558-.56-.834-1.31-.834-2.25 0-.925.258-1.694.776-2.308.542-.655 1.274-.983 2.198-.983.904 0 1.59.328 2.054.983.375.52.56 1.164.56 1.928Zm-1.333-.352c.011-.405-.081-.753-.271-1.047-.242-.378-.612-.568-1.112-.568-.456 0-.828.185-1.112.555a2.03 2.03 0 0 0-.414 1.06h2.909Z" fill="#fff"/>
</svg>