<svg width="21" height="15" viewBox="0 0 21 15" fill="none" xmlns="http://www.w3.org/2000/svg">
<path d="M17.6187 5.62437C17.6187 9.58578 14.3039 12.827 10.2523 12.827C6.20067 12.827 2.88584 9.58586 2.88584 5.62437H0.123657V7.42481H1.22868C2.05722 11.5662 5.8326 14.6274 10.2524 14.6274C14.6723 14.6274 18.4473 11.5665 19.276 7.42481H20.3805V5.62437H17.6187Z" fill="#424242"/>
<path d="M8.37644 1.8731C8.37644 2.70181 7.70464 3.37361 6.87593 3.37361C6.04723 3.37361 5.37543 2.70181 5.37543 1.8731C5.37543 1.0444 6.04723 0.372597 6.87593 0.372597C7.70464 0.372597 8.37644 1.0444 8.37644 1.8731Z" fill="#424242"/>
<path d="M15.1287 1.8731C15.1287 2.70181 14.4569 3.37361 13.6282 3.37361C12.7995 3.37361 12.1277 2.70181 12.1277 1.8731C12.1277 1.0444 12.7995 0.372597 13.6282 0.372597C14.4569 0.372597 15.1287 1.0444 15.1287 1.8731Z" fill="#424242"/>
</svg>
